<svg width="1931" height="708" viewBox="0 0 1931 708" xmlns="http://www.w3.org/2000/svg" xmlns:xlink="http://www.w3.org/1999/xlink" fill="none" overflow="hidden"><path d="M4.87649 607.854C1.8634 607.854 0 605.991 0 602.304 0 598.617 1.82376 596.793 4.87649 596.793L59.1121 596.793C62.1252 596.793 63.9886 598.617 63.9886 602.304 63.9886 605.991 62.1648 607.854 59.1121 607.854L38.6945 607.854 38.6945 673.151C38.6945 676.957 36.5536 679.177 31.9943 679.177 27.435 679.177 25.2149 676.957 25.2149 673.151L25.2149 607.854 4.87649 607.854Z" fill="#1D4B99"/><path d="M67.6768 623.514C67.6768 620.025 69.6194 618.043 73.1479 618.043 76.716 618.043 78.4208 619.867 78.9759 623.316L79.7292 628.311 79.8877 628.311C83.0197 622.008 88.253 617.409 94.4378 617.409 98.7592 617.409 101.138 619.669 101.138 623.95 101.138 628.827 98.7195 631.562 96.0236 631.562 94.3188 631.562 93.4862 630.769 91.7022 630.769 87.7376 630.769 83.8127 634.892 80.8392 640.601L80.8392 673.23C80.8392 676.917 78.6983 679.137 74.258 679.137 69.8177 679.137 67.6768 676.917 67.6768 673.23L67.6768 623.514Z" fill="#1D4B99"/><path d="M144.431 640.403C144.431 631.562 140.823 627.915 131.031 627.915 121.476 627.915 117.75 631.483 114.776 631.483 112.278 631.483 110.494 629.818 110.494 626.963 110.494 625.457 110.97 624.347 112.08 623.276 114.459 620.897 122.864 617.488 133.925 617.488 149.704 617.488 157.554 624.783 157.554 638.302L157.554 659.156C157.554 669.741 159.259 671.525 159.259 674.301 159.259 677.155 157.118 679.256 153.51 679.256 149.228 679.256 146.969 676.164 145.977 671.605L145.819 671.605C145.819 671.605 139.832 679.851 127.701 679.851 114.895 679.851 107.362 672.239 107.362 662.129 107.362 651.108 117.195 645.438 132.775 645.438 140.031 645.438 144.471 646.628 144.471 646.628L144.471 640.403 144.431 640.403ZM144.431 655.548C144.431 655.548 140.149 654.279 134.123 654.279 125.084 654.279 120.763 656.857 120.763 661.614 120.763 666.253 124.331 669.86 130.952 669.86 139.515 669.86 144.431 662.486 144.431 662.486L144.431 655.548 144.431 655.548Z" fill="#1D4B99"/><path d="M176.385 623.514C176.385 620.025 178.327 618.043 181.856 618.043 185.424 618.043 187.208 619.867 187.684 623.197L188.199 626.845 188.437 626.845C188.437 626.845 193.948 617.528 207.071 617.528 221.026 617.528 229.55 626.091 229.55 642.069L229.55 673.31C229.55 676.997 227.409 679.217 222.969 679.217 218.568 679.217 216.387 676.997 216.387 673.31L216.387 643.813C216.387 632.871 211.749 628.153 203.82 628.153 194.305 628.153 189.587 637.747 189.587 637.747L189.587 673.31C189.587 676.997 187.446 679.217 183.006 679.217 178.565 679.217 176.424 676.997 176.424 673.31L176.424 623.514 176.385 623.514Z" fill="#1D4B99"/><path d="M268.879 617.488C277.363 617.488 282.121 619.669 283.825 621.413 285.134 622.642 285.53 623.831 285.53 625.615 285.53 628.192 283.706 629.937 281.13 629.937 278.275 629.937 274.945 627.4 268.007 627.4 260.87 627.4 257.937 630.254 257.937 634.02 257.937 645.557 288.424 639.809 288.424 660.702 288.424 671.287 279.94 679.851 263.249 679.851 253.298 679.851 248.422 677.472 246.519 675.569 245.448 674.499 244.854 673.27 244.854 671.327 244.854 668.592 246.638 666.808 249.254 666.808 252.029 666.808 255.32 669.821 264.082 669.821 272.09 669.821 275.46 666.57 275.46 662.288 275.46 650.275 245.012 655.984 245.012 635.527 245.052 625.457 253.14 617.488 268.879 617.488Z" fill="#1D4B99"/><path d="M300.041 628.748C297.385 628.748 295.521 626.924 295.521 623.634 295.521 620.422 297.345 618.559 300.041 618.559L305.79 618.559 305.79 612.771C305.79 598.34 314.115 590.014 327.397 590.014 332.273 590.014 335.524 591.322 336.952 592.749 338.022 593.82 338.537 595.049 338.537 596.991 338.537 599.846 336.714 601.59 334.493 601.59 332.551 601.59 331.242 600.322 327.476 600.322 321.965 600.322 318.913 603.771 318.913 611.978L318.913 618.598 328.269 618.598C331.005 618.598 332.828 620.422 332.828 623.673 332.828 626.964 331.005 628.788 328.269 628.788L318.913 628.788 318.913 673.31C318.913 676.997 316.732 679.217 312.331 679.217 307.891 679.217 305.75 676.997 305.75 673.31L305.75 628.788 300.041 628.788 300.041 628.748Z" fill="#1D4B99"/><path d="M369.422 617.449C386.628 617.449 398.561 629.422 398.561 647.62 398.561 667.879 386.588 679.892 367.955 679.892 350.749 679.892 338.775 667.958 338.775 649.761 338.736 629.462 350.788 617.449 369.422 617.449ZM368.827 669.465C378.065 669.465 385.161 662.368 385.161 648.769 385.161 635.25 377.747 627.836 368.589 627.836 359.272 627.836 352.215 634.933 352.215 648.532 352.215 662.09 359.59 669.465 368.827 669.465Z" fill="#1D4B99"/><path d="M413.704 623.514C413.704 620.025 415.647 618.043 419.175 618.043 422.743 618.043 424.448 619.867 425.003 623.316L425.756 628.311 425.915 628.311C429.047 622.008 434.28 617.409 440.465 617.409 444.787 617.409 447.165 619.669 447.165 623.95 447.165 628.827 444.747 631.562 442.051 631.562 440.346 631.562 439.514 630.769 437.73 630.769 433.765 630.769 429.84 634.892 426.867 640.601L426.867 673.23C426.867 676.917 424.726 679.137 420.285 679.137 415.845 679.137 413.704 676.917 413.704 673.23L413.704 623.514Z" fill="#1D4B99"/><path d="M457.395 623.514C457.395 620.025 459.337 618.043 462.866 618.043 466.434 618.043 468.218 619.867 468.694 623.197L469.209 626.845 469.447 626.845C469.447 626.845 474.958 617.528 487.605 617.528 496.882 617.528 503.146 621.651 506.595 628.272 506.595 628.272 513.018 617.528 526.577 617.528 539.977 617.528 548.541 626.091 548.541 642.069L548.541 673.31C548.541 676.997 546.4 679.217 541.959 679.217 537.559 679.217 535.378 676.997 535.378 673.31L535.378 643.813C535.378 632.871 530.74 628.153 523.326 628.153 514.128 628.153 509.251 638.144 509.251 638.144 509.251 638.659 509.529 641.038 509.529 643.734L509.529 673.31C509.529 676.997 507.348 679.217 502.948 679.217 498.547 679.217 496.366 676.997 496.366 673.31L496.366 643.813C496.366 632.871 491.728 628.153 484.274 628.153 475.314 628.153 470.557 637.747 470.557 637.747L470.557 673.31C470.557 676.997 468.416 679.217 463.976 679.217 459.535 679.217 457.395 676.997 457.395 673.31L457.395 623.514 457.395 623.514Z" fill="#1D4B99"/><path d="M573.993 592.155C578.751 592.155 582.239 595.644 582.239 600.124 582.239 604.802 578.751 608.33 573.755 608.33 568.998 608.33 565.509 604.802 565.509 600.361 565.509 595.683 568.958 592.155 573.993 592.155ZM567.293 624.03C567.293 620.343 569.434 618.202 573.874 618.202 578.315 618.202 580.455 620.343 580.455 624.03L580.455 673.27C580.455 676.957 578.315 679.178 573.874 679.178 569.434 679.178 567.293 676.957 567.293 673.27L567.293 624.03Z" fill="#1D4B99"/><path d="M599.645 623.514C599.645 620.025 601.587 618.043 605.116 618.043 608.684 618.043 610.468 619.867 610.944 623.197L611.459 626.845 611.697 626.845C611.697 626.845 617.208 617.528 630.33 617.528 644.286 617.528 652.81 626.091 652.81 642.069L652.81 673.31C652.81 676.997 650.669 679.217 646.228 679.217 641.828 679.217 639.647 676.997 639.647 673.31L639.647 643.813C639.647 632.871 635.009 628.153 627.079 628.153 617.604 628.153 612.846 637.747 612.846 637.747L612.846 673.31C612.846 676.997 610.706 679.217 606.265 679.217 601.825 679.217 599.684 676.997 599.684 673.31L599.684 623.514 599.645 623.514Z" fill="#1D4B99"/><path d="M712.952 623.911C716.798 627.479 718.939 632.356 718.939 637.589 718.939 650.276 709.86 659.355 693.367 659.355 690.473 659.355 687.737 658.918 685.398 658.165 685.398 658.165 682.504 660.583 682.504 663.636 682.504 667.125 684.922 669.464 693.724 669.464L700.9 669.464C716.401 669.464 723.577 675.768 723.577 686.036 723.577 697.97 712.833 708 692.257 708 673.386 708 665.377 699.754 665.377 690.12 665.377 679.415 674.773 674.579 674.773 674.579 672.037 672.12 670.729 668.949 670.729 665.42 670.729 658.72 676.716 654.24 676.716 654.24 671.919 650.553 669.223 645.201 669.223 639.254 669.223 626.647 678.302 617.489 694.874 617.489 698.481 617.489 701.812 618.162 704.706 619.193L711.644 610.867C713.587 608.568 714.736 607.854 716.639 607.854 719.414 607.854 722.15 610.154 722.15 613.127 722.15 614.911 721.079 616.14 718.899 618.281L712.952 623.911ZM692.059 679.415C688.927 679.415 686.35 679.098 683.812 678.464 683.812 678.464 678.579 682.111 678.579 688.336 678.579 693.926 683.099 698.247 693.367 698.247 704.983 698.247 710.653 693.291 710.653 687.543 710.653 682.587 707.521 679.415 698.481 679.415L692.059 679.415ZM694.2 649.721C701.812 649.721 706.173 645.32 706.173 638.541 706.173 631.721 701.613 627.122 693.962 627.122 686.35 627.122 681.989 631.523 681.989 638.303 681.989 645.161 686.548 649.721 694.2 649.721Z" fill="#1D4B99"/><path d="M781.422 667.918 811.315 667.918C814.21 667.918 816.113 669.741 816.113 673.31 816.113 676.878 814.21 678.741 811.315 678.741L774.207 678.741C770.163 678.741 767.903 676.442 767.903 672.437L767.903 603.097C767.903 599.132 770.163 596.793 774.207 596.793L810.998 596.793C813.972 596.793 815.875 598.617 815.875 602.145 815.875 605.793 813.972 607.616 810.998 607.616L781.422 607.616 781.422 631.404 806.875 631.404C809.769 631.404 811.633 633.228 811.633 636.756 811.633 640.205 809.809 642.108 806.875 642.108L781.422 642.108 781.422 667.918Z" fill="#1D4B99"/><path d="M830.74 623.514C830.74 620.025 832.683 618.043 836.211 618.043 839.78 618.043 841.563 619.867 842.039 623.197L842.555 626.845 842.793 626.845C842.793 626.845 848.303 617.528 861.426 617.528 875.382 617.528 883.905 626.091 883.905 642.069L883.905 673.31C883.905 676.997 881.765 679.217 877.324 679.217 872.924 679.217 870.743 676.997 870.743 673.31L870.743 643.813C870.743 632.871 866.104 628.153 858.175 628.153 848.66 628.153 843.942 637.747 843.942 637.747L843.942 673.31C843.942 676.997 841.801 679.217 837.361 679.217 832.921 679.217 830.78 676.997 830.78 673.31L830.78 623.514 830.74 623.514Z" fill="#1D4B99"/><path d="M899.209 628.748C896.474 628.748 894.689 626.924 894.689 623.634 894.689 620.422 896.474 618.559 899.209 618.559L905.275 618.559 906.94 607.854C907.535 603.929 909.596 602.066 912.926 602.066 916.177 602.066 918.08 604.048 918.08 607.458L918.08 618.519 929.459 618.519C932.195 618.519 934.018 620.343 934.018 623.594 934.018 626.884 932.195 628.708 929.459 628.708L918.08 628.708 918.08 660.465C918.08 666.53 920.221 668.83 924.543 668.83 927.873 668.83 929.181 667.839 930.727 667.839 932.987 667.839 934.534 669.504 934.534 671.883 934.534 673.706 933.86 674.896 932.749 675.966 931.441 677.275 927.873 679.376 921.292 679.376 910.191 679.376 904.958 674.103 904.958 663.279L904.958 628.748 899.209 628.748 899.209 628.748Z" fill="#1D4B99"/><path d="M954.357 650.79 954.357 651.108C954.873 662.645 962.009 669.345 972.832 669.345 981.515 669.345 984.766 666.451 987.66 666.451 990.197 666.451 991.704 668.354 991.704 670.653 991.704 672.279 991.188 673.389 989.999 674.618 987.818 676.759 981.078 679.851 970.612 679.851 952.573 679.851 941.234 668.552 941.234 650.592 941.234 629.54 953.326 617.409 970.176 617.409 984.607 617.409 994.32 627.043 994.32 643.179 994.32 648.253 991.823 650.79 987.303 650.79L954.357 650.79ZM981.951 641.87C980.88 631.959 976.48 627.162 968.788 627.162 962.207 627.162 956.577 631.681 954.714 641.87L981.951 641.87Z" fill="#1D4B99"/><path d="M1009.7 623.514C1009.7 620.025 1011.64 618.043 1015.17 618.043 1018.74 618.043 1020.45 619.867 1021 623.316L1021.79 628.311 1021.95 628.311C1025.08 622.008 1030.32 617.409 1036.5 617.409 1040.82 617.409 1043.2 619.669 1043.2 623.95 1043.2 628.827 1040.78 631.562 1038.09 631.562 1036.38 631.562 1035.55 630.769 1033.77 630.769 1029.8 630.769 1025.88 634.892 1022.9 640.601L1022.9 673.23C1022.9 676.917 1020.76 679.137 1016.32 679.137 1011.88 679.137 1009.74 676.917 1009.74 673.23L1009.74 623.514 1009.7 623.514Z" fill="#1D4B99"/><path d="M1053.39 623.514C1053.39 620.025 1055.34 618.043 1058.86 618.043 1062.43 618.043 1064.22 619.867 1064.69 623.197L1065.21 626.845 1065.45 626.845C1065.45 626.845 1071.07 617.528 1084 617.528 1098.67 617.528 1108.5 627.32 1108.5 647.064 1108.5 667.838 1096.41 679.891 1075.79 679.891 1070.52 679.891 1066.56 678.702 1066.56 678.702L1066.4 678.741C1066.52 680.922 1066.56 683.34 1066.56 685.838L1066.56 701.379C1066.56 705.066 1064.41 707.207 1059.97 707.207 1055.53 707.207 1053.39 705.066 1053.39 701.379L1053.39 623.514 1053.39 623.514ZM1066.56 667.442C1066.56 667.442 1070.24 669.623 1077.18 669.623 1087.81 669.623 1095.06 662.367 1095.06 648.134 1095.06 633.743 1089.47 628.113 1080.87 628.113 1071.31 628.113 1066.56 637.708 1066.56 637.708L1066.56 667.442 1066.56 667.442Z" fill="#1D4B99"/><path d="M1123.61 623.514C1123.61 620.025 1125.55 618.043 1129.08 618.043 1132.64 618.043 1134.35 619.867 1134.9 623.316L1135.66 628.311 1135.82 628.311C1138.95 622.008 1144.18 617.409 1150.37 617.409 1154.69 617.409 1157.07 619.669 1157.07 623.95 1157.07 628.827 1154.65 631.562 1151.95 631.562 1150.25 631.562 1149.41 630.769 1147.63 630.769 1143.67 630.769 1139.74 634.892 1136.77 640.601L1136.77 673.23C1136.77 676.917 1134.63 679.137 1130.19 679.137 1125.75 679.137 1123.61 676.917 1123.61 673.23L1123.61 623.514 1123.61 623.514Z" fill="#1D4B99"/><path d="M1174 592.155C1178.75 592.155 1182.24 595.644 1182.24 600.124 1182.24 604.802 1178.75 608.33 1173.76 608.33 1169 608.33 1165.51 604.802 1165.51 600.361 1165.51 595.683 1168.96 592.155 1174 592.155ZM1167.3 624.03C1167.3 620.343 1169.44 618.202 1173.88 618.202 1178.32 618.202 1180.46 620.343 1180.46 624.03L1180.46 673.27C1180.46 676.957 1178.32 679.178 1173.88 679.178 1169.44 679.178 1167.3 676.957 1167.3 673.27L1167.3 624.03Z" fill="#1D4B99"/><path d="M1220.26 617.488C1228.75 617.488 1233.51 619.669 1235.21 621.413 1236.52 622.642 1236.92 623.831 1236.92 625.615 1236.92 628.192 1235.09 629.937 1232.51 629.937 1229.66 629.937 1226.33 627.4 1219.39 627.4 1212.26 627.4 1209.32 630.254 1209.32 634.02 1209.32 645.557 1239.81 639.809 1239.81 660.702 1239.81 671.287 1231.32 679.851 1214.63 679.851 1204.68 679.851 1199.81 677.472 1197.9 675.569 1196.83 674.499 1196.24 673.27 1196.24 671.327 1196.24 668.592 1198.02 666.808 1200.64 666.808 1203.41 666.808 1206.7 669.821 1215.47 669.821 1223.47 669.821 1226.84 666.57 1226.84 662.288 1226.84 650.275 1196.4 655.984 1196.4 635.527 1196.44 625.457 1204.52 617.488 1220.26 617.488Z" fill="#1D4B99"/><path d="M1263.83 650.79 1263.83 651.108C1264.35 662.645 1271.48 669.345 1282.31 669.345 1290.99 669.345 1294.24 666.451 1297.13 666.451 1299.67 666.451 1301.18 668.354 1301.18 670.653 1301.18 672.279 1300.66 673.389 1299.47 674.618 1297.29 676.759 1290.55 679.851 1280.09 679.851 1262.05 679.851 1250.71 668.552 1250.71 650.592 1250.71 629.54 1262.8 617.409 1279.65 617.409 1294.08 617.409 1303.79 627.043 1303.79 643.179 1303.79 648.253 1301.3 650.79 1296.78 650.79L1263.83 650.79ZM1291.43 641.87C1290.35 631.959 1285.95 627.162 1278.26 627.162 1271.68 627.162 1266.05 631.681 1264.19 641.87L1291.43 641.87Z" fill="#1D4B99"/><path d="M1339.76 617.488C1348.24 617.488 1353 619.669 1354.7 621.413 1356.01 622.642 1356.41 623.831 1356.41 625.615 1356.41 628.192 1354.58 629.937 1352.01 629.937 1349.15 629.937 1345.82 627.4 1338.88 627.4 1331.75 627.4 1328.81 630.254 1328.81 634.02 1328.81 645.557 1359.3 639.809 1359.3 660.702 1359.3 671.287 1350.82 679.851 1334.13 679.851 1324.17 679.851 1319.3 677.472 1317.4 675.569 1316.33 674.499 1315.73 673.27 1315.73 671.327 1315.73 668.592 1317.51 666.808 1320.13 666.808 1322.91 666.808 1326.2 669.821 1334.96 669.821 1342.97 669.821 1346.34 666.57 1346.34 662.288 1346.34 650.275 1315.89 655.984 1315.89 635.527 1315.97 625.457 1324.02 617.488 1339.76 617.488Z" fill="#1D4B99"/><path d="M1402.91 628.748C1400.25 628.748 1398.39 626.924 1398.39 623.634 1398.39 620.422 1400.21 618.559 1402.91 618.559L1408.66 618.559 1408.66 612.771C1408.66 598.34 1416.98 590.014 1430.26 590.014 1435.14 590.014 1438.39 591.322 1439.82 592.749 1440.89 593.82 1441.41 595.049 1441.41 596.991 1441.41 599.846 1439.58 601.59 1437.36 601.59 1435.42 601.59 1434.11 600.322 1430.34 600.322 1424.83 600.322 1421.78 603.771 1421.78 611.978L1421.78 618.598 1431.18 618.598C1433.91 618.598 1435.74 620.422 1435.74 623.673 1435.74 626.964 1433.91 628.788 1431.18 628.788L1421.78 628.788 1421.78 673.31C1421.78 676.997 1419.6 679.217 1415.2 679.217 1410.76 679.217 1408.62 676.997 1408.62 673.31L1408.62 628.788 1402.91 628.788 1402.91 628.748Z" fill="#1D4B99"/><path d="M1472.29 617.449C1489.5 617.449 1501.43 629.422 1501.43 647.62 1501.43 667.879 1489.46 679.892 1470.82 679.892 1453.62 679.892 1441.61 667.958 1441.61 649.761 1441.65 629.462 1453.66 617.449 1472.29 617.449ZM1471.74 669.465C1480.97 669.465 1488.07 662.368 1488.07 648.769 1488.07 635.25 1480.66 627.836 1471.5 627.836 1462.18 627.836 1455.12 634.933 1455.12 648.532 1455.08 662.09 1462.46 669.465 1471.74 669.465Z" fill="#1D4B99"/><path d="M1516.62 623.514C1516.62 620.025 1518.56 618.043 1522.09 618.043 1525.65 618.043 1527.36 619.867 1527.91 623.316L1528.67 628.311 1528.83 628.311C1531.96 622.008 1537.19 617.409 1543.38 617.409 1547.7 617.409 1550.08 619.669 1550.08 623.95 1550.08 628.827 1547.66 631.562 1544.96 631.562 1543.26 631.562 1542.42 630.769 1540.64 630.769 1536.68 630.769 1532.75 634.892 1529.78 640.601L1529.78 673.23C1529.78 676.917 1527.64 679.137 1523.2 679.137 1518.76 679.137 1516.62 676.917 1516.62 673.23L1516.62 623.514 1516.62 623.514Z" fill="#1D4B99"/><path d="M1606.77 673.151C1606.77 676.957 1604.51 679.177 1599.99 679.177 1595.47 679.177 1593.29 676.957 1593.29 673.151L1593.29 603.097C1593.29 599.132 1595.55 596.793 1599.59 596.793L1635.87 596.793C1638.84 596.793 1640.63 598.617 1640.63 602.145 1640.63 605.793 1638.84 607.616 1635.87 607.616L1606.81 607.616 1606.81 632.831 1631.07 632.831C1633.93 632.831 1635.83 634.655 1635.83 638.183 1635.83 641.712 1633.93 643.535 1631.07 643.535L1606.81 643.535 1606.81 673.151 1606.77 673.151Z" fill="#1D4B99"/><path d="M1651.53 624.03C1651.53 620.343 1653.59 618.202 1658.11 618.202 1662.55 618.202 1664.69 620.343 1664.69 624.03L1664.69 653.527C1664.69 664.469 1669.33 669.147 1676.9 669.147 1686.38 669.147 1691.14 659.553 1691.14 659.553L1691.14 623.991C1691.14 620.303 1693.28 618.163 1697.72 618.163 1702.24 618.163 1704.3 620.303 1704.3 623.991L1704.3 673.746C1704.3 677.235 1702.36 679.217 1698.83 679.217 1695.26 679.217 1693.56 677.394 1693 673.984L1692.48 670.416 1692.33 670.416C1692.33 670.416 1686.74 679.812 1673.65 679.812 1660.13 679.812 1651.53 671.209 1651.53 655.192L1651.53 624.03 1651.53 624.03Z" fill="#1D4B99"/><path d="M1720.16 628.748C1717.42 628.748 1715.64 626.924 1715.64 623.634 1715.64 620.422 1717.42 618.559 1720.16 618.559L1726.22 618.559 1727.89 607.854C1728.48 603.929 1730.55 602.066 1733.88 602.066 1737.13 602.066 1739.03 604.048 1739.03 607.458L1739.03 618.519 1750.41 618.519C1753.14 618.519 1754.97 620.343 1754.97 623.594 1754.97 626.884 1753.14 628.708 1750.41 628.708L1739.03 628.708 1739.03 660.465C1739.03 666.53 1741.17 668.83 1745.49 668.83 1748.82 668.83 1750.13 667.839 1751.68 667.839 1753.94 667.839 1755.48 669.504 1755.48 671.883 1755.48 673.706 1754.85 674.896 1753.7 675.966 1752.39 677.275 1748.82 679.376 1742.24 679.376 1731.14 679.376 1725.91 674.103 1725.91 663.279L1725.91 628.748 1720.16 628.748 1720.16 628.748Z" fill="#1D4B99"/><path d="M1766.11 624.03C1766.11 620.343 1768.17 618.202 1772.69 618.202 1777.13 618.202 1779.27 620.343 1779.27 624.03L1779.27 653.527C1779.27 664.469 1783.91 669.147 1791.48 669.147 1800.96 669.147 1805.71 659.553 1805.71 659.553L1805.71 623.991C1805.71 620.303 1807.85 618.163 1812.3 618.163 1816.81 618.163 1818.88 620.303 1818.88 623.991L1818.88 673.746C1818.88 677.235 1816.93 679.217 1813.4 679.217 1809.84 679.217 1808.13 677.394 1807.58 673.984L1807.06 670.416 1806.9 670.416C1806.9 670.416 1801.31 679.812 1788.23 679.812 1774.71 679.812 1766.11 671.209 1766.11 655.192L1766.11 624.03 1766.11 624.03Z" fill="#1D4B99"/><path d="M1838.19 623.514C1838.19 620.025 1840.13 618.043 1843.66 618.043 1847.22 618.043 1848.93 619.867 1849.48 623.316L1850.24 628.311 1850.4 628.311C1853.53 622.008 1858.76 617.409 1864.95 617.409 1869.27 617.409 1871.65 619.669 1871.65 623.95 1871.65 628.827 1869.23 631.562 1866.53 631.562 1864.83 631.562 1864 630.769 1862.21 630.769 1858.25 630.769 1854.32 634.892 1851.35 640.601L1851.35 673.23C1851.35 676.917 1849.21 679.137 1844.77 679.137 1840.33 679.137 1838.19 676.917 1838.19 673.23L1838.19 623.514 1838.19 623.514Z" fill="#1D4B99"/><path d="M1890.2 650.79 1890.2 651.108C1890.71 662.645 1897.85 669.345 1908.67 669.345 1917.36 669.345 1920.61 666.451 1923.5 666.451 1926.04 666.451 1927.54 668.354 1927.54 670.653 1927.54 672.279 1927.03 673.389 1925.84 674.618 1923.66 676.759 1916.92 679.851 1906.45 679.851 1888.41 679.851 1877.08 668.552 1877.08 650.592 1877.08 629.54 1889.17 617.409 1906.02 617.409 1920.45 617.409 1930.16 627.043 1930.16 643.179 1930.16 648.253 1927.66 650.79 1923.14 650.79L1890.2 650.79ZM1917.79 641.87C1916.72 631.959 1912.32 627.162 1904.63 627.162 1898.05 627.162 1892.42 631.681 1890.55 641.87L1917.79 641.87Z" fill="#1D4B99"/><path d="M1576.17 5.57709C1574.72 5.57709 1573.83 4.68718 1573.83 2.90732 1573.83 1.12746 1574.72 0.237549 1576.17 0.237549L1602.45 0.237549C1603.9 0.237549 1604.79 1.12746 1604.79 2.90732 1604.79 4.68718 1603.9 5.57709 1602.45 5.57709L1592.57 5.57709 1592.57 37.1993C1592.57 39.0385 1591.53 40.1064 1589.34 40.1064 1587.14 40.1064 1586.08 39.0385 1586.08 37.1993L1586.08 5.57709 1576.17 5.57709Z" fill="#1D4B99"/><path d="M1610.97 4.56833C1611.11 3.05545 1611.53 1.98755 1612.3 1.24594 1613.04 0.504334 1614.32 0 1616.07 0 1619.18 0 1620.55 1.45356 1621.38 4.18268L1628.85 27.6175C1629.77 30.4949 1630.34 33.0758 1630.34 33.0758L1630.46 33.0758C1630.46 33.0758 1631.02 30.4949 1631.91 27.6175L1639.41 4.21238C1640.27 1.45359 1641.64 0 1644.66 0 1646.33 0 1647.51 0.444976 1648.28 1.21625 1649.05 1.98752 1649.44 3.05545 1649.59 4.56833L1652.88 36.0125C1652.94 36.6948 1653 37.1101 1653 37.4958 1653 39.068 1651.52 40.1655 1649.59 40.1655 1648.64 40.1655 1647.72 39.8392 1647.19 39.3052 1646.59 38.712 1646.47 37.7924 1646.36 36.5168L1644.28 13.1414C1644.01 9.99695 1644.1 7.06013 1644.1 7.06013L1643.98 7.06013 1634.79 36.0125C1634.34 37.4364 1633.87 38.4153 1633.27 39.0383 1632.53 39.7799 1631.55 40.0765 1630.22 40.0765 1628.82 40.0765 1627.84 39.7799 1627.1 39.0383 1626.51 38.445 1626.01 37.3771 1625.59 36.0125L1616.39 7.06013 1616.28 7.06013C1616.28 7.06013 1616.25 9.93759 1615.95 13.1117L1613.9 36.5168C1613.78 37.7924 1613.69 38.6823 1613.07 39.3349 1612.54 39.8392 1611.71 40.1655 1610.76 40.1655 1609.01 40.1655 1607.52 39.1866 1607.52 37.5848 1607.52 37.1695 1607.58 36.7542 1607.64 36.0422L1610.97 4.56833Z" fill="#1D4B99"/><path d="M260.403 190.039C260.066 190.374 259.625 190.584 259.153 190.634 258.68 190.684 258.205 190.57 257.806 190.313 257.407 190.055 257.108 189.669 256.959 189.218 256.81 188.767 256.819 188.279 256.986 187.834 258.76 181.354 260.917 174.986 263.447 168.762 269.029 157.731 275.666 147.266 283.265 137.513 298.101 118.502 316.344 102.418 337.065 90.0808 385.398 61.3792 442.242 67.8712 496.29 66.753 566.429 65.293 636.568 62.7149 706.738 60.7269 707.55 60.7092 708.353 60.8933 709.076 61.2626 709.8 61.6319 710.42 62.1748 710.882 62.8429 711.344 63.5109 711.632 64.2832 711.722 65.0903 711.812 65.8974 711.701 66.7142 711.397 67.4674 698.724 98.5298 680.335 129.592 649.272 140.65 635.151 145.581 620.237 147.846 605.288 147.329 598.46 146.927 591.61 147.566 584.973 149.224 583.749 149.539 582.636 150.188 581.759 151.099 580.881 152.009 580.274 153.145 580.003 154.38 566.709 241.355 550.432 334.542 563.633 418.099 566.74 436.737 573.822 452.641 593.546 461.928 598.676 464.36 604.304 465.551 609.978 465.407 627.529 464.817 636.164 456.089 646.57 447.174 647.301 446.544 648.204 446.145 649.162 446.028 650.121 445.911 651.092 446.081 651.954 446.517 652.815 446.953 653.528 447.634 654.002 448.476 654.476 449.317 654.689 450.28 654.615 451.243 653.404 466.774 650.67 480.907 639.239 494.73 629.144 506.907 612.96 511.411 596.156 512.311 547.481 514.952 506.354 489.046 496.756 435.277 487.624 383.465 495.824 350.663 506.727 300.218 509.181 288.88 533.006 179.323 539.343 152.33 539.517 151.615 539.527 150.871 539.371 150.152 539.215 149.434 538.897 148.76 538.442 148.182 537.987 147.605 537.407 147.138 536.745 146.818 536.083 146.498 535.356 146.333 534.621 146.335L430.686 146.335C429.47 146.338 428.299 146.795 427.403 147.617 426.506 148.438 425.949 149.565 425.841 150.777 424.132 171.123 417.237 254.183 417.237 254.183 407.452 310.841 396.891 366.722 379.962 421.765 369.587 455.219 350.235 518.71 306.126 518.99 290.875 518.99 276.462 510.292 271.958 495.693 267.143 479.727 276.369 464.041 284.88 450.125 339.208 361.1 378.937 262.011 391.424 158.418 392.045 153.448 392.2 147.515 388.317 144.409 385.62 142.725 382.445 141.972 379.278 142.266 334.997 142.376 292.446 159.477 260.403 190.039L260.403 190.039Z" fill="#1D4B99"/><path d="M1491.73 34.7588 1139.98 34.7588C1111.84 34.7588 1089.03 57.5664 1089.03 85.701L1089.03 454.908C1089.03 483.043 1111.84 505.851 1139.98 505.851L1491.73 505.851C1519.86 505.851 1542.67 483.043 1542.67 454.908L1542.67 85.701C1542.67 57.5664 1519.86 34.7588 1491.73 34.7588Z" fill="#00A7EE"/><path d="M1261.74 210.634C1261.75 199.933 1264.63 189.429 1270.09 180.224 1275.54 171.019 1283.38 163.451 1292.76 158.313 1302.15 153.175 1312.75 150.656 1323.44 151.02 1334.14 151.384 1344.54 154.617 1353.55 160.381 1362.57 166.145 1369.87 174.228 1374.69 183.783 1379.51 193.337 1381.67 204.012 1380.95 214.689 1380.22 225.366 1376.64 235.652 1370.58 244.469 1364.52 253.287 1356.19 260.311 1346.48 264.807 1342.86 266.475 1339.08 267.786 1335.2 268.72" stroke="#FFFFFF" stroke-width="59.0185" stroke-linecap="round" stroke-miterlimit="10"/><path d="M1261.74 326.776C1261.75 337.477 1264.63 347.981 1270.09 357.186 1275.54 366.39 1283.38 373.958 1292.76 379.096 1302.15 384.234 1312.75 386.753 1323.44 386.39 1334.14 386.026 1344.54 382.792 1353.55 377.028 1362.57 371.264 1369.87 363.182 1374.69 353.627 1379.51 344.072 1381.67 333.398 1380.95 322.721 1380.22 312.044 1376.64 301.758 1370.58 292.941 1364.52 284.123 1356.19 277.099 1346.48 272.603 1342.86 270.932 1339.08 269.631 1335.2 268.72" stroke="#FFFFFF" stroke-width="59.0185" stroke-linecap="round" stroke-miterlimit="10"/><path d="M873.078 359.826C864.292 372.725 854.035 384.557 842.512 395.082 839.458 397.796 836.197 400.268 832.759 402.475 828.966 404.991 824.76 406.82 820.334 407.88 817.617 408.481 814.808 408.534 812.071 408.035 810.541 407.735 809.058 407.234 807.66 406.544 806.381 405.915 805.164 405.166 804.026 404.308 799.561 401.082 796.338 396.422 794.894 391.106 793.832 386.084 794.024 380.878 795.453 375.948 796.655 371.198 798.765 366.726 801.665 362.777 802.626 361.505 803.731 360.348 804.958 359.329 805.955 358.481 807.09 357.809 808.313 357.341 809.375 356.936 810.499 356.715 811.636 356.689 813.099 356.688 814.543 357.017 815.861 357.652 817.325 358.388 818.6 359.451 819.588 360.758 820.167 361.475 820.677 362.244 821.11 363.057 821.726 364.254 822.266 365.488 822.726 366.753 824.116 370.911 825.084 375.199 825.614 379.551 827.679 395.935 826.282 412.57 821.514 428.381 819.043 436.448 815.401 444.109 810.704 451.119 805.874 458.181 799.864 464.36 792.937 469.383 786.142 474.449 778.61 478.44 770.603 481.218 761.98 484.485 752.6 485.208 743.579 483.299 738.345 482.042 733.601 479.265 729.942 475.316 726.605 471.409 724.289 466.734 723.202 461.711 721.58 453.417 721.151 444.934 721.928 436.519 723.047 420.584 725.625 405.457 728.141 390.174 730.657 374.892 733.546 359.982 736.434 344.761 739.087 329.011 743.57 313.624 749.791 298.913 753.357 291.149 758.173 284.024 764.049 277.822 765.54 276.238 767.155 274.716 768.832 273.38 770.51 272.044 772.311 270.615 773.958 269.466 777.571 266.893 781.469 264.746 785.575 263.067 787.947 262.105 790.431 261.448 792.968 261.11 796.097 260.654 799.289 260.941 802.287 261.949 805.495 263.121 808.306 265.178 810.394 267.882 812.08 270.126 813.381 272.635 814.246 275.306 815.574 279.69 816.285 284.238 816.358 288.818 816.465 292.965 816.32 297.114 815.923 301.243 815.646 305.55 814.928 309.818 813.78 313.978 812.586 318.106 811.027 322.118 809.12 325.968 805.41 333.313 800.922 340.239 795.732 346.625 790.763 352.837 785.233 358.708 779.766 364.424 774.174 369.966 768.115 375.016 761.657 379.52 749.128 388.723 736.092 397.216 722.612 404.96 709.255 412.746 695.587 419.87 681.609 426.331 706.764 409.08 730.556 389.92 752.773 369.021 758.271 363.833 763.21 358.18 768.677 353.21 774.032 348.161 779.015 342.732 783.587 336.965 788.065 331.445 791.949 325.469 795.173 319.135 796.664 316.141 797.891 313.023 798.839 309.816 799.73 306.591 800.272 303.279 800.454 299.938 800.807 296.44 800.932 292.922 800.827 289.408 800.811 286.255 800.362 283.12 799.491 280.089 799.183 279.102 798.722 278.169 798.124 277.325 797.888 276.956 797.539 276.673 797.13 276.517 795.147 276.205 793.117 276.52 791.322 277.418 788.353 278.682 785.53 280.265 782.904 282.139 781.382 283.164 780.263 284.19 778.897 285.246 777.53 286.302 776.412 287.42 775.262 288.632 770.594 293.596 766.774 299.294 763.956 305.498 758.228 319.105 754.11 333.335 751.686 347.898 748.859 362.808 746.064 377.998 743.454 392.97 740.845 407.942 738.36 423.007 737.242 437.669 736.581 444.531 736.884 451.453 738.143 458.232 738.599 460.74 739.666 463.098 741.249 465.097 742.865 466.769 744.94 467.926 747.213 468.42 753.304 469.542 759.587 468.939 765.354 466.681 771.846 464.415 777.953 461.167 783.463 457.052 788.976 453.058 793.766 448.152 797.627 442.545 801.463 436.802 804.425 430.521 806.418 423.908 810.523 410.258 811.729 395.9 809.959 381.756 809.569 378.496 808.862 375.281 807.847 372.158 807.679 371.621 807.46 371.101 807.195 370.605 807.646 371.114 808.195 371.526 808.81 371.816 809.695 372.261 810.678 372.475 811.667 372.438 812.324 372.434 812.975 372.319 813.593 372.096 813.922 371.979 814.234 371.822 814.525 371.63 814.28 371.841 814.061 372.081 813.873 372.344 812.282 374.653 811.125 377.232 810.456 379.955 809.853 382.456 809.853 385.064 810.456 387.565 810.906 389.747 811.924 391.772 813.407 393.436 813.745 393.812 814.108 394.165 814.494 394.492 814.764 394.731 815.068 394.93 815.395 395.082 816.38 395.479 817.44 395.659 818.501 395.61 821.663 395.341 824.754 394.521 827.633 393.187 830.931 391.725 834.128 390.044 837.201 388.155 843.618 384.216 849.762 379.847 855.59 375.078 861.647 370.108 867.424 365.045 873.078 359.826Z" fill="#F9BB0E"/><path d="M857.883 411.421C870.898 397.94 884.286 384.925 897.798 372.096 904.57 365.666 911.341 359.267 918.206 352.993L928.488 343.519 933.799 338.704C935.044 337.584 936.408 336.604 937.868 335.784L938.707 335.38C939.046 335.214 939.4 335.079 939.763 334.976L940.384 334.759 941.285 334.573C942.12 334.459 942.966 334.459 943.801 334.573 945.121 334.766 946.376 335.266 947.467 336.033 948.378 336.708 949.14 337.564 949.703 338.549 950.418 339.747 950.833 341.101 950.915 342.494 950.993 343.72 950.92 344.951 950.697 346.159 950.511 347.091 950.324 347.805 950.107 348.551 949.703 349.98 949.268 351.222 948.833 352.465 947.933 354.887 946.97 357.124 946.007 359.329 944.05 363.771 942.062 368.027 939.981 372.251 935.787 380.638 931.594 388.932 927.556 397.101 923.518 405.271 919.666 413.72 916.156 421.951 914.416 426.082 912.801 430.245 911.372 434.376 909.993 438.186 909.024 442.133 908.483 446.149 908.306 447.572 908.306 449.012 908.483 450.435 908.732 451.429 908.483 451.305 908.887 451.647 909.876 452.221 911.005 452.512 912.149 452.485 913.998 452.546 915.85 452.432 917.678 452.144 926.248 450.42 934.53 447.491 942.279 443.446 958.685 435.481 973.44 424.489 985.767 411.048L990.24 405.861 994.34 400.363C995.738 398.561 996.918 396.604 998.16 394.678 999.403 392.752 1000.65 390.827 1001.7 388.808 1006.26 380.864 1010.03 372.488 1012.95 363.802 1015.93 355.198 1018.01 346.308 1019.16 337.275L1019.31 335.66 1019.31 334.883 1019.31 334.479C1019.31 334.262 1019.31 334.479 1019.31 335.163 1019.43 335.857 1019.74 336.504 1020.21 337.027 1020.68 337.488 1021.26 337.82 1021.89 337.99 1024.07 339.077 1028.85 334.883 1026.99 335.939 1026.99 335.691 1026.99 335.784 1026.99 335.939L1026.99 336.592 1026.71 338.207 1025.71 345.072 1023.72 358.957C1021.02 377.594 1018.13 396.076 1014.13 414.465 1010.29 432.938 1005.34 451.163 999.31 469.042 993.097 487.027 985.736 505.012 973.932 521.661 967.827 530.809 959.529 538.284 949.796 543.405 944.255 546.106 938.163 547.489 931.998 547.443 926.341 547.412 920.719 546.544 915.317 544.865 912.55 544 909.86 542.909 907.272 541.603 904.402 540.164 901.738 538.346 899.351 536.198 896.409 533.619 894.147 530.354 892.766 526.693 891.415 522.822 891.146 518.654 891.989 514.641 892.333 512.932 892.832 511.258 893.48 509.64 894.079 508.198 894.753 506.787 895.499 505.416 896.872 502.93 898.463 500.57 900.252 498.365 903.514 494.342 907.109 490.601 910.999 487.182 912.863 485.546 914.727 483.962 916.591 482.43 918.579 480.876 920.567 479.323 922.648 477.832 926.736 474.883 931.034 472.235 935.508 469.911 944.327 465.357 953.646 461.844 963.277 459.443 972.601 457.095 982.077 455.404 991.637 454.38 996.359 453.821 1001.14 453.386 1005.77 453.013 1010.17 452.818 1014.55 452.32 1018.88 451.522 1022.85 450.608 1026.57 448.838 1029.78 446.335 1033.26 443.751 1036.29 440.601 1038.73 437.016 1043.8 429.48 1047.38 421.046 1049.29 412.166L1051.15 412.446C1050.74 422.114 1048.3 431.587 1043.98 440.247 1041.64 444.731 1038.59 448.803 1034.94 452.299 1033.03 454.109 1030.95 455.732 1028.73 457.145 1026.45 458.551 1024.02 459.697 1021.49 460.562 1016.77 462.004 1011.95 463.115 1007.08 463.885 1002.48 464.724 998.005 465.501 993.532 466.464 984.675 468.313 975.924 470.636 967.316 473.421 959 476.151 951.019 479.808 943.522 484.324 939.83 486.499 936.3 488.939 932.961 491.624 931.252 492.897 929.699 494.357 928.084 495.724 926.469 497.091 924.791 498.83 923.269 500.29 920.289 503.179 917.536 506.295 915.038 509.609 913.027 512.082 911.585 514.966 910.813 518.058 910.616 518.611 910.616 519.214 910.813 519.766 911.157 520.452 911.657 521.048 912.273 521.506 914.844 523.464 917.78 524.889 920.908 525.699 924.434 526.717 928.08 527.26 931.749 527.315 934.978 527.351 938.17 526.627 941.068 525.202 947.858 521.509 953.696 516.288 958.121 509.951 963.356 502.962 967.902 495.482 971.695 487.617 975.733 479.665 979.306 471.34 982.598 462.767 989.183 445.776 994.588 428.164 999.714 410.427 1004.84 392.69 1009.59 374.767 1013.82 356.658L1016.92 343.053 1018.54 336.157 1018.97 334.355 1019.25 333.299C1019.25 333.082 1019.25 332.864 1019.62 332.367 1017.79 333.206 1022.73 328.857 1024.94 330.1 1025.58 330.455 1026.14 330.942 1026.58 331.529 1027.08 332.202 1027.39 332.995 1027.48 333.827 1027.51 334.2 1027.51 334.573 1027.48 334.945L1027.48 335.411 1027.48 336.374 1027.14 338.207C1025.24 347.574 1022.54 356.761 1019.07 365.666 1012.3 383.46 1002.66 400.02 990.519 414.683 989.059 416.577 987.413 418.317 985.829 420.087 984.244 421.858 982.722 423.66 980.952 425.337 977.597 428.723 974.025 431.891 970.453 435.028 963.196 441.272 955.504 446.991 947.436 452.144 939.122 457.619 930.062 461.866 920.536 464.755 917.821 465.512 915.027 465.95 912.211 466.06 908.672 466.263 905.14 465.545 901.96 463.978 900.009 462.947 898.294 461.519 896.928 459.785 895.678 458.155 894.731 456.314 894.133 454.349 893.203 451.251 892.845 448.009 893.077 444.782 893.447 439.515 894.406 434.305 895.934 429.251 897.315 424.534 898.933 419.889 900.78 415.335 904.383 406.389 908.514 397.847 912.863 389.46 917.212 381.073 921.592 372.842 925.909 364.61 928.053 360.51 930.289 356.472 932.308 352.465 933.302 350.477 934.265 348.458 935.104 346.563 935.508 345.631 935.88 344.668 936.16 343.891L936.471 342.897C936.471 342.618 936.471 342.618 936.471 343.084 936.525 343.9 936.781 344.69 937.216 345.382 937.657 346.092 938.226 346.713 938.893 347.215 939.755 347.816 940.744 348.209 941.782 348.364 942.328 348.45 942.883 348.45 943.429 348.364L943.894 348.364 944.112 348.364 944.329 348.364C943.746 348.66 943.195 349.014 942.683 349.42L937.371 353.676 926.344 362.342C919.045 368.151 911.621 373.867 904.197 379.52 889.349 390.889 874.377 402.071 859.001 412.757L857.883 411.421Z" fill="#F9BB0E"/></svg>